<svg xmlns="http://www.w3.org/2000/svg" viewBox="0 0 100 100"><g fill="none" fill-rule="evenodd"><path fill="#FF6000" d="M50 100c27.614 0 50-22.386 50-50S77.614 0 50 0 0 22.386 0 50s22.386 50 50 50z"/><path fill="#FFF" d="M27.48 26h19.185c1.95.19 1.48 3.58 1.48 5.783V42.27c0 2.278.435 5.07-1.094 5.718-.995.422-3.667.127-4.956.127h-10.17c-2.353 0-5.563.554-5.924-1.46V27.46c.263-.715.725-1.233 1.48-1.462m2.64 4.32v13.665h13.84V30.13H30.186c-.075.01-.07.1-.065.19M53.23 26h19.186c.783.287 1.32.815 1.48 1.716V46.4c-.175.776-.586 1.44-1.35 1.652-1.253.348-3.332.063-4.83.063h-9.85c-1.485 0-3.686.31-4.892-.063-1.702-.526-1.223-3.806-1.223-6.1v-9.788c0-2.65-.588-5.794 1.48-6.164m2.64 4.32v13.665h13.842V30.13H55.935c-.075.01-.07.1-.064.19m-19.44 4.005c1.927-.36 3.443.927 3.476 2.67.043 2.297-2.335 3.56-4.185 2.605-2.116-1.092-1.977-4.775.71-5.275m25.75 0c4.54-.837 4.453 6.26 0 5.53-2.834-.467-2.926-4.99 0-5.53M46.536 73.917h-18.99c-.79-.24-1.322-.73-1.546-1.525v-19.13c.187-.56.62-1.212 1.287-1.397 1.26-.35 3.32-.064 4.83-.064h9.848c1.456 0 3.575-.32 4.893.065 1.784.52 1.288 3.747 1.288 6.037v10.105c0 2.472.54 5.69-1.61 5.91M30.12 56.123v13.663h13.84V55.932H30.186c-.075.01-.07.1-.065.19m43.776-2.605v5.34c-.15 1.8-.02 3.875-.064 5.782H60.12v-3.115c-1.288-.15-2.854-.022-4.25-.064-.15 4.026-.02 8.326-.063 12.457h-2.51c-2.16-.427-1.546-3.625-1.546-6.165v-9.85c0-1.48-.303-3.702.065-4.893.44-1.423 2.344-1.21 4.25-1.21H65.4v8.453h4.312c.043-2.796-.086-5.76.064-8.452 2.076-.12 4-.09 4.12 1.717M36.75 60.063c2.06-.225 3.76 1.728 2.962 3.877-1.106 2.978-6.398 1.858-5.407-1.907.274-1.04 1.065-1.82 2.446-1.97m28.005 13.854H60.12c.043-1.63-.086-3.432.064-4.957h4.57v4.957m9.142-4.957v3.24c-.18.905-.714 1.456-1.545 1.717H69.07c.043-1.63-.086-3.432.065-4.957h4.763"/></g></svg>